HIERARCHY
ROOT mixamorig:Hips
{
	OFFSET 0.000000 201.639420 0.000000
	CHANNELS 6 Xposition Yposition Zposition Xrotation Yrotation Zrotation
	JOINT mixamorig:Spine
	{
		OFFSET 0.006200 19.524994 -2.481800
		CHANNELS 3 Xrotation Yrotation Zrotation
		JOINT mixamorig:Spine1
		{
			OFFSET -0.000900 22.835007 -2.825400
			CHANNELS 3 Xrotation Yrotation Zrotation
			JOINT mixamorig:Spine2
			{
				OFFSET -0.020600 26.552490 -3.193300
				CHANNELS 3 Xrotation Yrotation Zrotation
				JOINT mixamorig:Neck
				{
					OFFSET -0.060000 30.701813 1.352200
					CHANNELS 3 Xrotation Yrotation Zrotation
					JOINT mixamorig:Head
					{
						OFFSET -0.087200 22.547607 3.670900
						CHANNELS 3 Xrotation Yrotation Zrotation
						JOINT mixamorig:HeadTop_End
						{
							OFFSET -0.830600 40.355194 7.893500
							CHANNELS 3 Xrotation Yrotation Zrotation
							End Site
							{
								OFFSET 0.000000 30.592346 0.000000
							}
						}
						JOINT mixamorig:RightEye
						{
							OFFSET -6.302100 18.118591 16.197100
							CHANNELS 3 Xrotation Yrotation Zrotation
							End Site
							{
								OFFSET 0.000000 30.592346 0.000000
							}
						}
						JOINT mixamorig:LeftEye
						{
							OFFSET 6.741500 18.382690 16.401899
							CHANNELS 3 Xrotation Yrotation Zrotation
							End Site
							{
								OFFSET 0.000000 30.592346 0.000000
							}
						}
					}
				}
				JOINT mixamorig:LeftShoulder
				{
					OFFSET 11.924900 18.230499 1.425400
					CHANNELS 3 Xrotation Yrotation Zrotation
					JOINT mixamorig:LeftArm
					{
						OFFSET 25.435989 -0.697632 -5.229300
						CHANNELS 3 Xrotation Yrotation Zrotation
						JOINT mixamorig:LeftForeArm
						{
							OFFSET 54.684776 0.000000 0.000000
							CHANNELS 3 Xrotation Yrotation Zrotation
							JOINT mixamorig:LeftHand
							{
								OFFSET 55.098175 0.000000 0.000000
								CHANNELS 3 Xrotation Yrotation Zrotation
								JOINT mixamorig:LeftHandMiddle1
								{
									OFFSET 23.369751 0.000000 0.000000
									CHANNELS 3 Xrotation Yrotation Zrotation
									JOINT mixamorig:LeftHandMiddle2
									{
										OFFSET 6.378677 0.000000 0.000000
										CHANNELS 3 Xrotation Yrotation Zrotation
										JOINT mixamorig:LeftHandMiddle3
										{
											OFFSET 6.148331 0.000000 0.000000
											CHANNELS 3 Xrotation Yrotation Zrotation
											JOINT mixamorig:LeftHandMiddle4
											{
												OFFSET 6.582504 0.000000 0.000000
												CHANNELS 3 Xrotation Yrotation Zrotation
												End Site
												{
													OFFSET -1.168900 6.395691 1.028606
												}
											}
										}
									}
								}
								JOINT mixamorig:LeftHandThumb1
								{
									OFFSET 7.235672 -3.848206 5.434273
									CHANNELS 3 Xrotation Yrotation Zrotation
									JOINT mixamorig:LeftHandThumb2
									{
										OFFSET 6.568451 -3.792297 3.792300
										CHANNELS 3 Xrotation Yrotation Zrotation
										JOINT mixamorig:LeftHandThumb3
										{
											OFFSET 6.063080 -3.500519 3.500518
											CHANNELS 3 Xrotation Yrotation Zrotation
											JOINT mixamorig:LeftHandThumb4
											{
												OFFSET 4.793182 -2.767334 2.767349
												CHANNELS 3 Xrotation Yrotation Zrotation
												End Site
												{
													OFFSET 0.101639 6.054260 1.275483
												}
											}
										}
									}
								}
								JOINT mixamorig:LeftHandIndex1
								{
									OFFSET 23.101074 -0.309540 4.992809
									CHANNELS 3 Xrotation Yrotation Zrotation
									JOINT mixamorig:LeftHandIndex2
									{
										OFFSET 6.226883 0.000000 0.000000
										CHANNELS 3 Xrotation Yrotation Zrotation
										JOINT mixamorig:LeftHandIndex3
										{
											OFFSET 6.094330 0.000000 0.000000
											CHANNELS 3 Xrotation Yrotation Zrotation
											JOINT mixamorig:LeftHandIndex4
											{
												OFFSET 5.482605 0.000000 0.000000
												CHANNELS 3 Xrotation Yrotation Zrotation
												End Site
												{
													OFFSET -1.427902 5.233032 0.797164
												}
											}
										}
									}
								}
								JOINT mixamorig:LeftHandRing1
								{
									OFFSET 22.299240 0.021149 -3.964172
									CHANNELS 3 Xrotation Yrotation Zrotation
									JOINT mixamorig:LeftHandRing2
									{
										OFFSET 6.321869 0.000000 0.000000
										CHANNELS 3 Xrotation Yrotation Zrotation
										JOINT mixamorig:LeftHandRing3
										{
											OFFSET 5.899796 0.000000 0.000000
											CHANNELS 3 Xrotation Yrotation Zrotation
											JOINT mixamorig:LeftHandRing4
											{
												OFFSET 6.517899 0.000000 0.000000
												CHANNELS 3 Xrotation Yrotation Zrotation
												End Site
												{
													OFFSET -1.637299 6.232208 0.980890
												}
											}
										}
									}
								}
								JOINT mixamorig:LeftHandPinky1
								{
									OFFSET 20.463791 -0.302338 -8.562233
									CHANNELS 3 Xrotation Yrotation Zrotation
									JOINT mixamorig:LeftHandPinky2
									{
										OFFSET 6.908646 0.000000 0.000000
										CHANNELS 3 Xrotation Yrotation Zrotation
										JOINT mixamorig:LeftHandPinky3
										{
											OFFSET 4.622849 0.000000 0.000000
											CHANNELS 3 Xrotation Yrotation Zrotation
											JOINT mixamorig:LeftHandPinky4
											{
												OFFSET 5.216080 0.000000 0.000000
												CHANNELS 3 Xrotation Yrotation Zrotation
												End Site
												{
													OFFSET -0.606308 5.116241 0.814926
												}
											}
										}
									}
								}
							}
						}
					}
				}
				JOINT mixamorig:RightShoulder
				{
					OFFSET -12.001300 18.284088 1.348900
					CHANNELS 3 Xrotation Yrotation Zrotation
					JOINT mixamorig:RightArm
					{
						OFFSET -25.308500 -0.751312 -5.164599
						CHANNELS 3 Xrotation Yrotation Zrotation
						JOINT mixamorig:RightForeArm
						{
							OFFSET -54.684429 0.000000 0.000000
							CHANNELS 3 Xrotation Yrotation Zrotation
							JOINT mixamorig:RightHand
							{
								OFFSET -55.150291 0.000000 0.000000
								CHANNELS 3 Xrotation Yrotation Zrotation
								JOINT mixamorig:RightHandMiddle1
								{
									OFFSET -23.317566 0.000000 0.000000
									CHANNELS 3 Xrotation Yrotation Zrotation
									JOINT mixamorig:RightHandMiddle2
									{
										OFFSET -6.378403 0.000000 0.000000
										CHANNELS 3 Xrotation Yrotation Zrotation
										JOINT mixamorig:RightHandMiddle3
										{
											OFFSET -6.148193 0.000000 0.000000
											CHANNELS 3 Xrotation Yrotation Zrotation
											JOINT mixamorig:RightHandMiddle4
											{
												OFFSET -6.583389 0.000000 0.000000
												CHANNELS 3 Xrotation Yrotation Zrotation
												End Site
												{
													OFFSET 1.171692 6.395905 1.029786
												}
											}
										}
									}
								}
								JOINT mixamorig:RightHandThumb1
								{
									OFFSET -7.190521 -3.860474 5.435846
									CHANNELS 3 Xrotation Yrotation Zrotation
									JOINT mixamorig:RightHandThumb2
									{
										OFFSET -6.567429 -3.791718 3.791708
										CHANNELS 3 Xrotation Yrotation Zrotation
										JOINT mixamorig:RightHandThumb3
										{
											OFFSET -6.062469 -3.500153 3.500166
											CHANNELS 3 Xrotation Yrotation Zrotation
											JOINT mixamorig:RightHandThumb4
											{
												OFFSET -4.792618 -2.767029 2.767022
												CHANNELS 3 Xrotation Yrotation Zrotation
												End Site
												{
													OFFSET -0.100327 6.053253 1.276754
												}
											}
										}
									}
								}
								JOINT mixamorig:RightHandIndex1
								{
									OFFSET -23.048981 -0.310791 4.992554
									CHANNELS 3 Xrotation Yrotation Zrotation
									JOINT mixamorig:RightHandIndex2
									{
										OFFSET -6.227539 0.000000 0.000000
										CHANNELS 3 Xrotation Yrotation Zrotation
										JOINT mixamorig:RightHandIndex3
										{
											OFFSET -6.095047 0.000000 0.000000
											CHANNELS 3 Xrotation Yrotation Zrotation
											JOINT mixamorig:RightHandIndex4
											{
												OFFSET -5.484772 0.000000 0.000000
												CHANNELS 3 Xrotation Yrotation Zrotation
												End Site
												{
													OFFSET 1.420593 5.237305 0.797056
												}
											}
										}
									}
								}
								JOINT mixamorig:RightHandRing1
								{
									OFFSET -22.246323 0.020569 -3.963762
									CHANNELS 3 Xrotation Yrotation Zrotation
									JOINT mixamorig:RightHandRing2
									{
										OFFSET -6.322128 0.000000 0.000000
										CHANNELS 3 Xrotation Yrotation Zrotation
										JOINT mixamorig:RightHandRing3
										{
											OFFSET -5.900024 0.000000 0.000000
											CHANNELS 3 Xrotation Yrotation Zrotation
											JOINT mixamorig:RightHandRing4
											{
												OFFSET -6.518356 0.000000 0.000000
												CHANNELS 3 Xrotation Yrotation Zrotation
												End Site
												{
													OFFSET 1.636398 6.232697 0.982186
												}
											}
										}
									}
								}
								JOINT mixamorig:RightHandPinky1
								{
									OFFSET -20.411011 -0.303314 -8.561701
									CHANNELS 3 Xrotation Yrotation Zrotation
									JOINT mixamorig:RightHandPinky2
									{
										OFFSET -6.907349 0.000000 0.000000
										CHANNELS 3 Xrotation Yrotation Zrotation
										JOINT mixamorig:RightHandPinky3
										{
											OFFSET -4.623840 0.000000 0.000000
											CHANNELS 3 Xrotation Yrotation Zrotation
											JOINT mixamorig:RightHandPinky4
											{
												OFFSET -5.218353 0.000000 0.000000
												CHANNELS 3 Xrotation Yrotation Zrotation
												End Site
												{
													OFFSET 0.602097 5.118835 0.816273
												}
											}
										}
									}
								}
							}
						}
					}
				}
			}
		}
	}
	JOINT mixamorig:LeftUpLeg
	{
		OFFSET 18.168400 -13.561905 -0.039000
		CHANNELS 3 Xrotation Yrotation Zrotation
		JOINT mixamorig:LeftLeg
		{
			OFFSET 0.577358 -80.825211 -3.695000
			CHANNELS 3 Xrotation Yrotation Zrotation
			JOINT mixamorig:LeftFoot
			{
				OFFSET -0.577356 -83.370262 -6.520700
				CHANNELS 3 Xrotation Yrotation Zrotation
				JOINT mixamorig:LeftToeBase
				{
					OFFSET 0.750401 -20.798306 25.135401
					CHANNELS 3 Xrotation Yrotation Zrotation
					JOINT mixamorig:LeftToe_End
					{
						OFFSET -0.000500 0.001200 19.917799
						CHANNELS 3 Xrotation Yrotation Zrotation
						End Site
						{
							OFFSET 0.000000 19.917805 0.000000
						}
					}
				}
			}
		}
	}
	JOINT mixamorig:RightUpLeg
	{
		OFFSET -18.162500 -13.585098 -0.041000
		CHANNELS 3 Xrotation Yrotation Zrotation
		JOINT mixamorig:RightLeg
		{
			OFFSET -0.595024 -80.945297 -3.631900
			CHANNELS 3 Xrotation Yrotation Zrotation
			JOINT mixamorig:RightFoot
			{
				OFFSET 0.595024 -83.218193 -6.561200
				CHANNELS 3 Xrotation Yrotation Zrotation
				JOINT mixamorig:RightToeBase
				{
					OFFSET -0.753601 -20.807106 25.115000
					CHANNELS 3 Xrotation Yrotation Zrotation
					JOINT mixamorig:RightToe_End
					{
						OFFSET 0.000299 0.001700 19.918200
						CHANNELS 3 Xrotation Yrotation Zrotation
						End Site
						{
							OFFSET 0.000000 19.918203 0.000000
						}
					}
				}
			}
		}
	}
}
MOTION
Frames: 4
Frame Time: 0.033333
1.675426 113.239700 -3.375069 -23.679735 -2.117570 3.834208 5.353575 -0.060732 -1.538361 10.705893 -0.105734 -2.815588 10.705887 -0.105733 -2.815588 3.815712 0.186512 3.834402 -8.971581 3.172608 4.413337 -0.000000 0.000000 -0.000000 -0.000000 0.000000 -0.000000 -0.000000 0.000000 -0.000000 -0.460085 -10.937286 -22.438724 15.278467 7.583826 -46.253406 -1.762831 -115.208434 -1.595396 58.978110 3.336681 -3.360779 -1.624125 10.295368 19.548809 -0.192558 -1.056978 -17.868939 -0.000001 0.000002 0.000002 -0.000000 0.000000 0.000000 -11.816813 -21.514143 21.295300 4.835011 18.723049 -4.557716 -0.000001 0.000016 0.000002 0.000001 -0.000001 0.000001 -7.656853 4.991357 22.635384 0.716447 1.411303 -16.514462 -0.000000 0.000002 -0.000001 -0.000000 0.000001 -0.000002 1.511789 8.476815 12.892699 -0.228065 -0.293067 -18.574291 0.000001 0.000001 0.000001 -0.000002 -0.000001 -0.000000 5.520819 19.466396 11.324565 -0.899127 -3.337115 -19.688372 0.000001 -0.000004 -0.000000 0.000000 0.000000 0.000001 -0.819015 14.650138 22.178652 15.413965 4.428025 52.209413 -0.316944 109.227231 0.299627 52.443634 -23.227052 -14.024488 2.553377 -0.887505 -19.315917 -0.482461 1.571684 28.302047 0.000001 0.000001 0.000002 0.000002 0.000000 -0.000001 -7.643605 13.272138 -9.202776 6.436589 -15.052519 3.664887 0.000001 -0.000003 0.000001 0.000004 -0.000000 0.000001 -5.922905 13.090771 -12.530273 -2.636341 -13.446329 21.800109 -0.000004 -0.000008 -0.000005 -0.000000 -0.000001 0.000000 -0.304620 -8.859439 -14.799784 -0.103646 -0.082877 16.057694 -0.000002 0.000005 0.000003 0.000001 -0.000000 0.000000 5.160114 -18.422084 -1.915698 -0.133713 -0.259601 11.545961 -0.000002 -0.000011 -0.000004 0.000000 0.000001 -0.000000 -72.852724 6.209654 5.741181 86.812592 -1.352179 -2.382712 8.812234 5.727367 2.040360 -0.121207 -0.000740 0.000483 0.000000 0.000000 -0.000000 -74.328646 3.526344 -1.156133 88.370114 2.129363 2.452209 9.403652 -16.753370 -3.048955 -0.606626 0.003340 0.004588 -0.000000 -0.000002 0.000000 
1.669152 113.286728 -3.388985 -23.720697 -2.145092 3.833725 5.321860 -0.062908 -1.541335 10.642388 -0.110348 -2.821476 10.642391 -0.110348 -2.821476 3.936877 0.207952 3.833657 -9.023781 3.259968 4.396586 -0.000000 0.000000 0.000000 -0.000000 0.000000 0.000000 -0.000000 0.000000 0.000000 -0.456551 -10.911628 -22.435298 15.291409 7.586999 -46.307327 -1.770087 -115.006452 -1.604501 58.945345 3.290278 -3.187830 -1.618495 10.274969 19.589039 -0.192706 -1.057435 -17.878018 -0.000000 0.000003 0.000002 -0.000000 -0.000001 0.000001 -11.808556 -21.496569 21.299098 4.834054 18.720708 -4.556967 -0.000002 0.000021 -0.000003 0.000004 0.000002 0.000001 -7.655458 4.987852 22.637649 0.716388 1.411170 -16.512228 0.000001 0.000003 -0.000002 -0.000000 0.000000 -0.000003 1.512436 8.485083 12.899003 -0.228023 -0.292967 -18.573120 -0.000001 0.000002 0.000001 -0.000001 0.000000 -0.000000 5.522529 19.460713 11.309351 -0.898794 -3.336367 -19.683919 0.000000 -0.000005 0.000000 -0.000001 0.000000 0.000002 -0.764424 14.153236 22.159673 15.510282 5.456007 51.461347 -0.975649 108.787824 0.924030 51.935871 -23.232757 -14.411467 2.543991 -0.898353 -19.278916 -0.482039 1.570918 28.288723 0.000000 0.000001 0.000002 0.000000 0.000000 -0.000001 -7.645021 13.269761 -9.196632 6.440873 -15.061180 3.666708 0.000002 -0.000003 0.000001 -0.000001 -0.000000 -0.000001 -5.916192 13.100661 -12.558566 -2.637630 -13.446242 21.800104 0.000002 -0.000007 -0.000003 0.000001 0.000000 -0.000002 -0.303511 -8.855579 -14.790705 -0.104870 -0.078067 16.133021 -0.000002 0.000005 0.000004 -0.000001 0.000001 -0.000001 5.160336 -18.424439 -1.916727 -0.135422 -0.259557 11.545947 -0.000005 -0.000012 -0.000003 -0.000002 -0.000002 -0.000001 -72.775474 6.225946 5.754673 86.801227 -1.341197 -2.381631 8.717832 5.763230 2.125425 -0.094268 -0.000577 0.000378 -0.000000 0.000001 0.000000 -74.248070 3.516790 -1.141340 88.337009 2.128565 2.452194 9.378495 -16.723757 -3.067077 -0.594646 0.003343 -0.000001 -0.000000 0.000000 0.000000 
1.652058 113.342194 -3.399780 -23.767404 -2.203245 3.825054 5.300700 -0.050043 -1.557108 10.600293 -0.086941 -2.855092 10.600285 -0.086941 -2.855091 4.179601 0.256440 3.867607 -9.432607 3.479807 4.343917 -0.000000 0.000000 0.000000 -0.000000 0.000000 0.000000 -0.000000 0.000000 0.000000 -0.465059 -11.261502 -22.108446 15.419406 7.865157 -46.772729 -1.766273 -114.813294 -1.603439 59.078104 3.200519 -2.686408 -1.617987 10.275262 19.573167 -0.192537 -1.056922 -17.867669 -0.000001 0.000003 0.000004 -0.000000 0.000000 0.000000 -11.809224 -21.501598 21.301207 4.835315 18.723837 -4.557983 -0.000002 0.000020 0.000002 0.000001 0.000000 -0.000001 -7.653119 4.981625 22.631733 0.716716 1.411921 -16.523851 0.000003 0.000005 -0.000001 -0.000001 0.000001 -0.000003 1.514856 8.493796 12.848215 -0.227991 -0.292845 -18.572017 -0.000000 0.000001 0.000003 -0.000000 -0.000001 -0.000000 5.524390 19.455697 11.294706 -0.900184 -3.339479 -19.702396 -0.000001 -0.000005 0.000000 -0.000001 0.000000 0.000001 -0.684869 13.364635 22.190784 15.798822 7.229688 49.781909 -1.774021 108.239627 1.685215 50.636092 -23.389168 -14.453413 2.551360 -0.888010 -19.303849 -0.482128 1.571061 28.291379 0.000002 0.000001 0.000003 0.000003 -0.000001 -0.000000 -7.650940 13.263968 -9.175189 6.441103 -15.061665 3.666823 0.000003 -0.000004 0.000003 0.000000 -0.000000 0.000001 -5.913107 13.073587 -12.539948 -2.637189 -13.446295 21.800120 0.000003 -0.000008 -0.000002 -0.000001 0.000000 -0.000001 -0.299335 -8.838348 -14.815445 -0.103807 -0.082263 16.067250 -0.000004 0.000005 0.000004 0.000002 -0.000000 0.000002 5.159597 -18.427724 -1.922833 -0.134446 -0.259620 11.545949 -0.000002 -0.000012 -0.000003 -0.000003 -0.000002 -0.000001 -72.687126 6.219185 5.790815 86.792682 -1.331651 -2.380705 8.628841 5.799796 2.166748 0.015415 0.000983 -0.003030 0.000000 -0.000000 0.000000 -74.155439 3.503447 -1.089439 88.295891 2.126150 2.452052 9.350129 -16.692957 -3.094571 -0.575586 0.003360 -0.000012 0.000000 -0.000002 0.000000 
1.626013 113.387115 -3.415771 -23.833546 -2.293680 3.812073 5.319960 -0.041524 -1.590830 10.638910 -0.075104 -2.924570 10.638915 -0.075105 -2.924570 4.557043 0.358923 3.922134 -10.360473 3.905267 4.324149 -0.000000 0.000000 0.000000 -0.000000 0.000000 0.000000 -0.000000 0.000000 0.000000 -0.485462 -12.012739 -21.504577 15.667385 8.538210 -47.550899 -1.745856 -114.783911 -1.585235 59.334967 3.139036 -1.830178 -1.627594 10.302341 19.574513 -0.192242 -1.055965 -17.848102 -0.000000 0.000003 0.000002 -0.000001 -0.000000 0.000001 -11.821194 -21.520743 21.291496 4.839817 18.734787 -4.561586 -0.000002 0.000020 -0.000001 0.000000 -0.000001 -0.000000 -7.657157 4.993355 22.668541 0.716812 1.412132 -16.527357 0.000001 0.000001 -0.000000 -0.000003 -0.000000 0.000001 1.514264 8.485842 12.840463 -0.227964 -0.292779 -18.571033 0.000001 0.000003 0.000000 -0.000001 0.000001 0.000000 5.516674 19.457372 11.324901 -0.898961 -3.336734 -19.686173 -0.000001 -0.000004 0.000000 -0.000001 0.000000 0.000001 -0.615624 12.733399 22.183314 16.434709 9.641423 46.690398 -2.795104 107.790050 2.661488 47.818127 -23.502256 -13.528384 2.551219 -0.886375 -19.299191 -0.481271 1.569499 28.264479 0.000002 0.000001 0.000004 0.000000 0.000001 -0.000000 -7.638162 13.253045 -9.197896 6.446804 -15.073164 3.669254 0.000004 -0.000003 -0.000001 0.000000 -0.000000 -0.000000 -5.930821 13.098189 -12.515996 -2.637663 -13.446230 21.800106 0.000003 -0.000008 -0.000004 0.000003 0.000000 -0.000001 -0.302802 -8.853091 -14.784786 -0.104880 -0.077991 16.133827 0.000000 0.000005 0.000003 -0.000001 0.000000 -0.000001 5.161399 -18.424642 -1.912062 -0.134168 -0.259638 11.545955 -0.000001 -0.000012 -0.000004 0.000000 -0.000001 -0.000000 -72.583464 6.184045 5.831957 86.797313 -1.322880 -2.379955 8.535906 5.856829 2.171647 0.023173 0.001088 -0.003250 -0.000000 0.000001 0.000000 -74.050172 3.489759 -1.006049 88.254575 2.122800 2.451839 9.326686 -16.657329 -3.126233 -0.554317 0.003371 -0.001773 0.000000 -0.000002 0.000000 
